/* XPM */
static char *result[] = {
/* columns rows colors chars-per-pixel */
"64 64 47 1 ",
"  c #A5BABF",
". c #ACBCBF",
"X c #9FBBC0",
"o c #A3BDC3",
"O c #ABBEC2",
"+ c #B0BEC1",
"@ c #A6C0C6",
"# c #ADC1C6",
"$ c #A6C3CA",
"% c #ACC5CB",
"& c #ACC8CE",
"* c #B1C2C5",
"= c #B1C6CA",
"- c #B1C9CE",
"; c #B8CBCE",
": c #A8C7D0",
"> c #ADCCD3",
", c #B2CDD3",
"< c #B9CED3",
"1 c #AED0D6",
"2 c #AED2DB",
"3 c #B3D1D6",
"4 c #BAD1D5",
"5 c #B3D5DC",
"6 c #BAD5DB",
"7 c #B4D8DF",
"8 c #BBD9DF",
"9 c #B2D6E0",
"0 c #B5DDE5",
"q c #BADDE5",
"w c #B5DFE8",
"e c #B9DFE8",
"r c #B5E0E7",
"t c #B9E0E7",
"y c #B5E0E8",
"u c #BAE1E9",
"i c #C1D3D7",
"p c #C3D9DD",
"a c #C1DEE4",
"s c #C2E0E7",
"d c #C2E2E9",
"f c #CCE6EC",
"g c #CFE8EE",
"h c #D3E9EE",
"j c #D9ECEF",
"k c #DCEEF2",
"l c #DFF0F3",
/* pixels */
"lkkf0pjjhd0pfdut76qddea6wwwwq8usuu68rwww5qeeww6adueq6eeew04auuua",
"jgdyw#auut2@qrrr2otett4:ywwr$>uett%>ywwr$5eewwo9tueeo0www7oeewwe",
"dryw9@0rww2owwrr2owruu1%rwwr:>ttuu#>rwwwX2rwwwo5teeeo0rrw7X0wwww",
"wwww9o0rww2owrry2orrtu1:rwwr$&rwuu$>rr0w@3rrw0X5wweq 0wrr7Xwwwww",
"q0005o700r2 97001o000w>%w0r0%&e00r$&0r07 3ww00 5w007o700w5 000q7",
"4=-=-.==&-#.&&==*.=-==*O-%==*#---=#*&=--.#-==&O=;===O=-==*.-===6",
"tww00&qwrq7%0wrr5%eett5,eeew,>ywtw&3t0tr%5w0w0%8eee0%0q0r9#000rt",
"rrw09o9r0r2 wrrr1owrwr>:rwwr$&yrwr$&rrrro2rw0wo5ter0o0w0r7X0wwww",
"wwwt9o0rrr5owwwr2orwyy1$rwww$>ywwr$>rrtto2rrwwX5tee0o0wrr9 www00",
"rwee0o0rrt2oww001oywyy>&rwrw:&yy0r$>rryy@2rrwwX5ree0o0ryr9orrw00",
"q5775o57771 7777>o0979>#9070%%0577@&0777 39977 37705o57703 80790",
"i;;;=*=%&=-#&&%&=+==--=O=&-&=*;;;;**-&=&#=-&-%*==-==*;;--%.-==&6",
"dqdeq#0wrw9$0w0r9$ewwt3:rwwr>,uutt&1rrww$5yyrr$7ywww#qeey9@0rrww",
"eeeew@0wwy2owrrr2oeeyt1>rrrr:%tuyt$>rrwwo3rywwo2yrr9o0wty7 rrrww",
"wwwe0X0rw02o0wrr2owuud,$rwwr:>etuu%>rwww@2yyrwo5wwr0o0yyy0Xr00w0",
"rrwy0X0yyy2Xwwwr2oyyyu2:rrrr$>yttt$>yyrrX2yyrwo2ww00o0rrr7Xr0ww0",
"75752O55751o5777>o7577&%0555%%7750$-7775o,7555o32775@77773 77578",
"4,,&&=,,,,,*&,,,;*,&,&-*,,,,;=<,<,*-,,,>*-,,,,*,1>,&*;-3--*;,<<6",
"yywr0$0wyt9$tttu5$twwr2&tyuu,,uuww%>rwwr%5rwrw$5rwyw$0rwy0@0tttu",
"wwww9o0wry2@rttt3owwwr1&yyyu%:uuww$>rwwwo2rwwwX7rww0@9wwr9 wttuq",
"wrrr9owwrr2Xyytt3orrww1$ywtu%>etet$>ywww@2rrywo5rww0X0wwr9 qwtue",
"rrry0owyrr2oyyyy2orrrr1:yyty:>yyet$>ywrro5rryyX5rrwwo0rrr2owyyee",
"05553O3555,o5555>O5555:$6556$=9675#-q685O,7555O35575o56853O55555",
"8,3,>=,>,>,*,>>>,#,3,3-%11,1==4444=-,33,*,3333*,13,,*4333,*33,,8",
"eeyy0o0www9@0wrr2oyyuy2:tueu>:uuud%1euuu@5tyyyo9www0@0tyy0owwrr0",
"wwyr0o0www2Xwww02owyyy1:tueu%>uddu$,ueuuo5tyrwo9y0w0o0yrr9Xwww00",
"wwtt0owwyy2Xwwwy2owytu>%duuu::uaeu$>yyeyo5rrrwo5yrw9owrrr9Xw0w00",
"yywy9owyyy2@wrrw2otttu,,udud:>ueet$1yyyyo5yrywX5yrrwo9rrr9Xryww0",
"6333>O,433,O>,32>O,433##6333=#1333#%4533o-3333o,1113o,113&.,1335",
"8331,=4465<=,333,*5454<=6135;;4534=&3333#,3333*,1233%>333,*31568",
"rrrrw@euut9oytyy3$uuwu5:euuu>-eeyy:>yryy$2rrryo9rrrw$0ywr9owtttq",
"wwww9@0uud8Owudd3oudeu1%eeyu::eeyy$>rwryo2rwwwo9rry9X0wwr9oettut",
"wwww0o0tud6oqddd9Odaad3%yrrr:&rruy$>wwyto5rrwwX5rrrwo9rrw9 rrtuu",
"rrrr9o0ttt5Osdff9Odade,:tyrr:&tryy$>wwyyo5yyww 7rrwwowrry9 rryew",
"33,3,.,343,.44<4;+<<63%O3,3,##3343$=333,O-33>,.-,,>>O,,11&.-33,6",
"85666#3553,*6688<+6696<=5555-=8756*,5455#<6555#,5553#66853#53358",
"ttttqoqryu9ouuuu6Odedu1-ttyy&&yuyu$>yrrr$5yyrwX7yrw0Xwyyy9owrrrr",
"ertueoqeyy9ottud5Odeuu1:yryt:&uutt$>rwwwX5yywwo2rrw9X0rry5Xwrr00",
"yttuwOeyty2otttt9oeeeu>%yyyt:&ttuu$>rw0wX5rrw0X5rww0X9wwy0Xrw0w0",
"tutt9#euty2@yttt2oeeyy1>tyyy:&ytuu$1rrr0o5rrr0o7rwr0$0wwy9Xrwww0",
"4--=%+=-&&=*&-&&++=:;:++&>&=#*&&,&*==---O*:-&%#%&%%%#&%%&#.--&&;",
"q5q66%55925#55552=5995,,2757--7555-<8q65*15552#35555#57773*7866q",
"ertuw@wwrr2orrrr2oewwe2:rwrr&:yrry$>ttyto5eyrwX7trrw@0r0r9Xtttut",
"wttuq@9wrr2orwwr2oeeyw>%rrrr::yrwr$>ytyro2ywwwX5rtr0X70wr9Xrtuda",
"rytuq@wwrr2owwww1Owwew1:yrry$&wwww$>ywwwo2ywwwo2ywr0o0wwr9 wtude",
"rrtt5o9wrr2@wwww2owwry1%trry>&twrr$,rrrwo5ywwwX5rwy9o9wwr2 wyyeq",
"4--&&.----=.=-=,#O=<--%O--,-##-,--#*,---O=,-&-O-&-&&O;-->&O;-,,6",
"q0777&888q5%77095*qq9q1%7079,-q007%,0507$30575#30777%57785#5795q",
"wrrr0o0ewe9owwwr2otywy1:rwww:&yyrr$>rrwro5rwwwX7w0r0o0rwr0 www00",
"wwww0o0wye5owwwr2oewyy1$rwrw:%yrrr@>r0wwX3yeyyX9wwr9o7rrt5 0w000",
"wrw09$0wwr3o0www1owwyr>&wwrr%>rwrw$>rrrw@2wwyeX7w000o0wwt0 www00",
"0r0r9o0www2@0www1@qwew>&wwwr&&rwww$>rr0e@2wwwwo50r00oqwtt9oqwr00",
"4;-;-#=,,--*-;--=*;---=#>&;-==&---*=----#=--&&*=&&--*;&--&O;&;-6",
"qwqq0%900w5%0q0q5%w0ww3&e0ee,>ww00&,ww00%20000#50r00%90005#qeqqu",
"rtrt5O0www2oyyrt2@r0wr1:ttyy&&rwwr$>yyyyo2rwr0X5rrr9o9rww7 wtutq",
"wrtuqo00ww5oryyt3Xrwwr>&rrtt%&rrwr$>yyyyX1rrrrX7rrw0owrrw7 wettq",
"0wrt0@0w0w5@rrrr2oywww>%rrrt$&rw0w$>r0rr@2rww0X2r0w0o0rrr9 qeeeq",
"q0w05o50001o070w>Oe000>&q000&%0w00@&0000o30009 50007o70qw5.qaaaa",
";**=*+**#*=+#=#%#+==*#*##&#&#+#=%##*%###.*%=#**#=##%*=*%%*.==*=<",
"ttqeq%00005%ww0r5#eeew3&000r>&rwww%>w0wr$3wert#5ww00#qwe07Owwqqq",
"etty9O0wyy2orrwr2owtty2$rrrr::ryyy$>rwwwo2rytto2rww0owtyy9owwwwq",
"eetdqo0wwy2o0rww2oeeuu>%trwr::rruy$:rw0wo2yruuo5rwr9owttt5 ewwwe",
"eeeuqo0twr2owwwr2oyytu>%rwwr$&yyyy$:ww00o2ywte 7rww0o9wyt9oquqea",
"adauq#qutt5%eyyr5%tttt1,tyrr>3trry:1rrrr%5rtee@7rrw0#ettt0*adfgg"
};
