/* XPM */
static char *result[] = {
/* columns rows colors chars-per-pixel */
"64 64 29 1 ",
"  c #BBBBB7",
". c #BEBEBC",
"X c #C0BFBD",
"o c #BFC0BD",
"O c #C1C1BE",
"+ c #C5C5C2",
"@ c #C8C7C4",
"# c #C7C8C4",
"$ c #C9CAC6",
"% c #CDCDCA",
"& c #D0CFCB",
"* c #CFD0CC",
"= c #D2D2CD",
"- c #D5D5D1",
"; c #D8D7D3",
": c #D7D8D4",
"> c #D9DAD5",
", c #DEDEDA",
"< c #E0DFDA",
"1 c #DFE0DB",
"2 c #E2E3DD",
"3 c #E5E6E1",
"4 c #E7E8E3",
"5 c #EBEBE6",
"6 c #EDEEE9",
"7 c #EFF0EB",
"8 c #F0F1ED",
"9 c #F4F4F2",
"0 c #FBFBFA",
/* pixels */
"00009390999,99843,8888516565336777226565245655177777227662187788",
"00099=89998+3848<+66861%6556-%7767==6556O<6555O27777$56572O67777",
"90998%49994o3685,o58891@5666=$7779%*7656O<7665O27787$27762O57887",
"99998%49995o36563o56691@6656-#7777%=6656O>7755O27776O26762O57777",
"86665%38663o2335,.3343>+3344-+4444$*4444O-4645O25222O22242O24444",
",-==%O$=%%%.+@@@+.@$%%+ $$##O.$$$$oo#$$$oOOOOOoO$*$%O*%%$# $#$$=",
"66866=38665@35652@66663%5455:%6455=-5455*<5566O56775*57784$45555",
"66866%38885o36653o68863$6566-$6655**7757O>6656O17775O58874O55555",
"56696$36896X36661o66993+5656-$6657**7777O>7566O18888#58884X55565",
"66666$26863o36662o5676,$6666-$6675*=7757O27766O28585O28884X55655",
"33332+,333,o<223>.2333-+2333=+3222$$2222O;2222O>2222O2223,X22223",
",-%-&+$%%%%O%&%%$+%$%*%+%=%%$+=-==$+**=*OO&***O%&===O===&%X%===>",
"66686=35653+36663+56562%5566:=7888-=5565&26556O25755$58584+45555",
"56866%35563.3665,+56672$5655-$7758**6656O;6665O15554#47772O57555",
"56896%25653X36561o57782+5575-$7788**6665O;6666O17574O47872O45575",
"56666$36663X45662.56772$7857-$5567*=6666%16665O27755$25582O48854",
"3,21,#>221>O>222-.,222-+2212=+2222*O2222O*2211O:2222O2222>O22222",
",--==$=;;>;$--;;=+--===$-;=;=$>;::%%----$*-:-1O*-=-=O;>>>*O-:--2",
"65665*27775+48874+55551%7778>=7766*-6666%16656$16655O66662O56776",
"56665$27775o48773O56551#5658>$7766&%6656O;6655O16672O26662O67666",
"56664#36884O46682O55551$6668:$6867**7655$>5655O16654O46662O56676",
"56565$36774O56762O56871$6666-%6666**7566O16655O27665O47672o46765",
"2>>>-+=>>;=.=;;;=o->>>%O:;:>$+>><>OO1;;1O%1>1:o=>>>;O>>>>-o;>>>>",
"4>>>;$:>>;;#==-==O----=+--:-%@>>>1**:::>O=>;>>$=;-;-O2>>--O-;--1",
"87876%56965+46662O57663$6666:%8677-=8878$17798$17565O47764O66665",
"67875$36663o46662O5566,@6867-@6877*-8888O17788O16754O46762O46555",
"56785$36883O36562o5766,$9896-$6877**7757$16687O25665%47562O56555",
"66665$26663o46662O57881$8889-$9877**7775O>7666O27675O45562O56665",
"<;--=+=-;:-.=-;:=.-:::%+::;;$+;;;-$O;---OO1---O*:---O>>--=o---;<",
"3,,,,%,23<,@:,>,;+,,,,:%,>,,-%1122=&11,2$-1111$121<1O<<<<>O1<<<4",
"55655%38665+35662+67762$8888;%6656**6657%>6665O57766O55654O57765",
"56664$38886o58894+67871$6866-$6876&*7656O>6655O27777O46662O57776",
"55653@26695.49996O7977<;6666<O7767&&6657O27665O27777O67662O46777",
"56666$36663+48095O7887<O6667>O7756=-6666O<7666O47776O56662O56665",
",---=+&---=X=;-;=OO<<OOOO<O<OO;O-;OO-=-=O*--=-OO-*==O>---=O==-=>",
"32332$>12,,+33442O<245<;<422;;4522-&2222O>2422O>2222O22422O<2222",
"66666$38665+79882O89772O6666<O7777**7566O27776O26665O57785O47665",
"66886%39985O89902O7876<O6666<O7777**6665O>7766O26554O47782O56672",
"56886$48895o89994O57664O6667;O6678**6656O26666O26655O56785O46665",
"58665%38883o45552O2566<O6666<O6667&&6656O>6664O25555O66572O55555",
">&&%$++&*$$O$&&&%O$=&%$OO=OOOOO=OOO=&&&*OO&&O=OO=O=OO&O&O&O%%&%-",
"53333=,2242#22222$4444<&4264<;4454->5522*;2222&<5242%24222%22525",
"85888%28552O47572O58862$6656;O7666*=7777O>7775O>6675O45772O57777",
"58888$26753O45752o5768<@5656;O7766**7777%>6757O16677O25762O57887",
"88884@36553o46652o5666,$6666<O6666&*7777O27655O26665O28672O57777",
"44453%24552o3555,o3665>$6645;O6664*=6655O;5555O25554O27552O25562",
",&=&%o%=*=*O$**%%.%&%%$+O;;OOOO<*&OOO*O*OO=**=O%OOO=O%==*%O=&=&>",
"53443%28654+34542+5555,$4555>;6756;*7576%15525O27555%25252$22552",
"55666$36863O3666<O56662O7666;O7777<O6666O>6666O<8665O56664O46664",
"85653$36663o3665<O56664O7766<O7779O<6666O>6677O<7755O56764O56664",
"56663$38663o3864<O6766<O5666;O6676<O6666O26666O46555O56664O46564",
"35333$,3352O2454<O5754>O4544;O5555OO5567O<5545O45444O2555<O44544",
",===%+$&&%%+&&&&OO;O;O;OO;O;OOO;OOOOO;OOOOO;OOOOO;OOO<O;;OOOO;O4",
"88665&25553+46665O65764O6666<;6676<26597=<6755;57766O65676O57777",
"66865@36653.46862O55662O6666<O7777O>7677O>6666O27776O66664O56676",
"66886@26663X46662O56665O6667;O7767O;6768O>6666O<7766O76654O56665",
"66665@27562O46684O5666<O5566;O6666O;7665O<8766O46665O46662O66665",
"4223<@<222,X,222<O<242<O4444;O4424;O5422O<2222O22222O<242<O54222",
"<&-%&@$&&&&X$=&$OO;OOO;OO=O;OOO;OOOO;OO=OO;OOOOOO;O;O;O;OOOO;OO<",
"68666&47754+45754O77774O6667<O6777<;6666O<7797O66666O66775O76677",
"66885%28882O2557<O56775O5656;O7777=&6666O28777O26665O67772O66677",
"66887$27782O5775<O56774O6666<O7777O&6656O<8779O26664O67775O77777",
"66664&26775O26554O5667<O6656;O6677O;6565O26676O46564O76662O97777",
"44564-25552=26555O5555<=55552O5555;;5555O<5655O<5564O45564O67997"
};
