/* XPM */
static char *result[] = {
/* columns rows colors chars-per-pixel */
"64 64 61 1 ",
"  c #7FAA84",
". c #7FB485",
"X c #7EBE85",
"o c #7FC086",
"O c #7FC088",
"+ c #82A786",
"@ c #82AB86",
"# c #85A788",
"$ c #85AB8A",
"% c #8AAC8D",
"& c #81B486",
"* c #80BD87",
"= c #85B48A",
"- c #8AB48D",
"; c #84BD89",
": c #8ABC8D",
"> c #8EAD91",
", c #92AD93",
"< c #97AE98",
"1 c #9BAF9B",
"2 c #8EB491",
"3 c #8DBB91",
"4 c #93B594",
"5 c #94B995",
"6 c #96B598",
"7 c #9BB49C",
"8 c #96BA98",
"9 c #9ABA9B",
"0 c #A0B49F",
"q c #9FB5A0",
"w c #9EB9A0",
"e c #A0B6A1",
"r c #80C087",
"t c #83C18A",
"y c #89C18E",
"u c #8CC392",
"i c #8DC994",
"p c #92C295",
"a c #91CA97",
"s c #96C59B",
"d c #9AC49D",
"f c #96C99C",
"g c #99C99E",
"h c #9EC3A1",
"j c #9CCAA1",
"k c #9AD0A1",
"l c #A3C7A6",
"z c #A2CBA5",
"x c #A3C6A8",
"c c #A7CBAB",
"v c #AACCAD",
"b c #A4D3A9",
"n c #A8D4AD",
"m c #AECEB0",
"M c #B3CEB4",
"N c #A9D7B0",
"B c #AAD8B1",
"V c #B0D5B5",
"C c #B9D3BA",
"Z c #B5DBBA",
"A c #B8DBBC",
/* pixels */
"ABNbihVNbjiccka:*xuuuupx;XXX3zytt;sh.X*Xddyt;*js:yyyx3;t;;cuuuyu",
"ZbkiO2jaiyX>:XXX.$;tOX;%.oXX&-*ttr&-ooXX$:rX**$;Xtot%;r*X*%yttt;",
"Niyty%utOuO%XXXXX+;;tt;$*oXX&$rttt&%XXXX@-**XX@=Ottt$;X*X.$;Otty",
"ktttX=3tOOO$.XXX.+**OtX$*XoX&%***t&-rXXX@-r*XX@;ott;$;X*X*%;OOtt",
"byuyt=:tyO;$XXXX.+&**;&%;;:;=%:ty;=2t:t;@:y;**@=*;;*%:;t;&%3;;;;",
"C98867q8w5qq<444415444475555475644<75655<<444477485477878416855l",
"jyyy;33yOy32-X;;*4uy:y:4:;;;-4;;;;--;*;;--**;;-:ttt:23yt;34;**;;",
"jOXXX$=OOOX .XXX.+*trr;@*X*X&$XXXX&$**XX+=*XXX+&tt*t@;trO;%;*o.*",
"fXtt;&&XOt;+XXXXX+***t;$*o*X.+;XXX&%***r@=*XX*@*Otty$;tttt%;*XX*",
"fX*tX$&XOtX#&XXO.+XXrt&$*oX*&%XXXX&-***r@-oXr* &Ott;$;o;t;%;X*X*",
"z;:;;$-;;;;#=*;*&#=;;;=%::y;->:uyt%4:y:t$-;;;&@-;;;;>3:y;-%3:y:;",
"C9995764424744224742424745456q8894065554772424754444q78885q65889",
"zyyyy2;XXXX%&**X.-;;**;%**XX&2yt;r--**XX--r***=&XX*X2;;t;;%;****",
"dryt;==XXXX@*XXXX+XX***$*XXX&%Xtrr=-**XX@=XXXX@.oXXX#;;X**%;XXXX",
"fotty$=*XX.@;XXX.@*;tt;$*oXX.$O;*t=$*oXX@=rXXX .XXXX$;X***#;XXX*",
"fXOo*$;XXX.+;X*X.+;*or*$*o*X.$ttr*&-XrXX@-X*oX &XXXX$;X*X*%;XXX*",
"j;:;;--:::=%:;:;=%:::;=>:::;->3;:=-4:y:=%-=;;*%=*=;=-5:y:;,3=:::",
"m45--7645540545540424-40354597558457488:978544772445095544e5888d",
"fXXX*%=rrrr%;rrr*%*rXXX=;oXo;-;orX=-**XX--**XX==XrXX%&****%;rrrt",
"f.XX*@;rtrr#&rrr;#&rXX*#;XXO=$;;Xr&=*oXX@=XXXX@;XXXX@;o*X*%;**r;",
"sX*XX@=rrt;@&rtr;@;*XX.@;XOt&$O;rt&=tXXo@-**XX@=XrXX#;**X.%;r*rt",
"sXrrX@;*r**+**rr&#;r*X&$XOXt&%tOr*$-OoXo@:*r**$=XX**$=r*X;%;*r*;",
"z:y:=--=:;=%-;;;&>-:::=43:3;-4333:-6333:%43u3:%5:y::23:::-,3::::",
"n85:58854::9--=&-6-:-:26--3-27333387233366533398:4:-75533375-::5",
"grrr*-;rrrX$&XXX.#*XXXX$*ooX&%OOtX&-XOOO=-trtr%&XXXX@;XrX.$;XXXX",
"g;ttr@=*t*. *rXXX@*Xr*&$rroX&$tttt$2tttO@-ttrt==XXXX@*rrXX$;XXXX",
"fXOt*@=rr;X+.rrX.@&rrr;$yttO&$ttOO&=tXXO=-r;tt$;XXXX+&**X.+;XXX*",
"fXtr*@;rrXX *XXr.@;tt;*%yttt&$t;tt&2ttOt@2rtr*@=XXXX+*rrXX+;X***",
"z-:-->2--==,%====,-:--%,:::--,-:2=>623-->4---=,-&==&%-=&=&,----:",
"c::==68u3339--:=:63::::6-;-:27333346;2::44-:::69:3::6--=--7-:::p",
"sXXX*==rtor$***r&$;r*r&%;ttO;%;XXX&=XXXX&-XXXX==tr;*@XXXXX$;or**",
"s*XX*@=tttt$;ttyy$yytt;=tOXX&$OtXo&=XXX*@-XXXX@=ttrt+.XXXX#*t;t;",
"fXXoX+=Xttt%:yuau$uuy:;$tXXX.$oor;&%XXO;&-;rXX@=rrtt@**XX.#;rrt;",
"fXtOX%;Otr;#:iaap>uiiu;>tO;X&%trro&2t;tO$-rrrX@&rXrX@&XXX.#;rrr;",
"m5853<48555789d98q99984745434<5585474853<65555<44:--<54::-<54559",
"c3333423:=3<ppps87p8p33433::2633:324::::45p3::44::::4533y54-:::p",
"sXXXX%;Otrr$yyiyu%3yyyy%;XXX.%OoXo&-XXXo&-*XXr@&XXXX .rrrr#;XXXX",
"fXtO;&;;ttt%uiaiu>uiiy;%;Ooo&$ttt;=$;oXX@-rrXr@=*XXX@*ttr;#;XXXX",
"fXOt;%yttt;$yyyy:%;ttt;%;tOX&%r;Ot=-r*XX@-rrXr@;X*XX@**rt;$;XrXX",
"jtyt;=:yyy;%tyyy;%:yyt&%t;tt=%t;tt=2ttro=-y;r*@=XXXX#&Xrr&%:rr;*",
"m6844765442054442q75544q4544<04454<08844<7444-<4%-->04-44-065445",
"j;;y;4-=;&=4:;;*=6u33;34;;;;-4;;;;:8:y::5-;;;*4-;:;;2-;;;:6:::yy",
"goott=;XXXX+=XXXX#XOXXX$XXXX.$XXXX&-rtrr==XXXX@&**XX+.XXXX#;rrXr",
"j.Oty$&XXX*#;rXXX#;;t;;$XXXX&$*;XX&%rrrt@=XXXX@&**rX+.rXX.#trtty",
"fXX;;$;X*X*#;XXXX#;XXOX$XXXX.$XXXX&-**;t$-r*X*@&X*XX@.XXX&#;*rty",
"j;;;*$-;t;*$;;tt&%;yy;=>yty;=>;yt*=4t;tt$-t;**#&XXX*@=X*r;$:tt;;",
"V8552775854078846q88664q66857q888877868467555474-4>474545409495h",
"d;*;;23t:;;-=*;;=23;;X;>;;;X-2:y:t--;;;;-2;;;*%:*;**>:;;r=>:;;*:",
"sXXXX@;XtX;+;oXX*@;*XX&$*XXX&%Xt*r@=XXXX@=rrX*@&*XXX+*XrXX$=rXXX",
"fXXX*@=X;OX+;.oX&%;**X*$*XXX&$XX**&=rXXX@=**r;=&**XX+*X;*;$rrXX*",
"fXXX*$&XXX.#;XXX;@*XXX&%*rXX&$*X*r&%r*XX@=**o*@=**XX$:X*r;$:**X*",
"j;y:;%3yyy;-:yyt=%::yy;%y:yt=2:yyt=4ytyr%:t;;*$:*;;*%::y:;,3yyy;",
"M9884794884e76885e78855798889085456055447644-4095555005454095999",
"gttr*--XX*X-;***;>****=-;*r;--X***=-X***--XXXX==;;;;-r*XX*-:rtrt",
"gXtX*$;XXXX+;X**&$*XXX*$**rX&$XXXX&=*rXr@&XXXX@&;rrr@:XXX.$:rrrt",
"g*ttt$&XXX.+;r*r*#*XXX&@*r*r.$X;XX@&*r*r@=XroX@&*rr;$;XXX;$:ttr:",
"g*r**$=XXX*@;X*r*#;r***%r*XX&#XXXX@&XXXX@=XrXX+=orX*@;*;r;%yyyyy",
"z:y:=%:y:;=%5:::=>3:y:->:::;-%:*;;&%:;::%2=:;;%-;:=;45::y-,9ppp5",
"M88580788440425440655447444440444440>4>-77444574444479454404545h",
"g;t*r-:r***%;X*X&%;r;*;%*rXX&$X*XX=&XX*r&=oo**-=X***%:r***%*X*r;",
"g*ttr@=rr*;#;*XX.@;rrr;$*XXr&@**XX&&XXXX@=r;rr$=XXXX$:rr**#t*rrr",
"jttty$=trt;@=*oX.#;rr;;$**XX&#****&@XXXX@=rott%;XXX*@:*rt;%trrt;",
"jyytt%=rtr;#;**X*#*Xr**$*XXX&$*XX*&@rrXX@=X*rr%=**X*#:*rr*%yryyu",
"vsffp8sppp:9pupy;0pppp:9ppp;:5:yy;:4*ry;58ypuy6pypyy9pupu30sgbnn"
};
