/* XPM */
static char *result[] = {
/* columns rows colors chars-per-pixel */
"64 64 15 1 ",
"  c #9FA3A4",
". c #A2A5A6",
"X c #A4A7A8",
"o c #A6A9AB",
"O c #AAADAE",
"+ c #AEB0AF",
"@ c #ABAFB1",
"# c #AEB3B4",
"$ c #B0B4B4",
"% c #B6B9B7",
"& c #B3B7B9",
"* c #B5B9BA",
"= c #B9BCBC",
"- c #BCBFC1",
"; c #BEC1C2",
/* pixels */
"*&&&&;&&*&#;&&##&;$#&#&-###&*-###&--@###==###&;#####;&#&##;&&&#&",
"*&&##o#####o####@o##&##o####@.####@o@###oo####o#####o@#### @####",
"&&###.#&###o####@.$$##@X####O.####@X#@##oo#### o#### @#### #####",
"&&###o##&##o##&#@.#$##@o-###@X&$##oo#-##oo*###o#&### @&&## #####",
"#####X#####o####@X#$$@Oo@###OX&$##oo#&#@oo###@oo&### ##$#+ ####@",
"*#+$+OO+O+O##++++@OO+++O@@@#@@+@+@@O#@#@O+#+#++#@#@#o@##++O@##+&",
"&###$+####&@####$@@$#$$@#####@###$#@####@o####@@####@@#########&",
"#####X+#### ####@.####@X####@.####@o####oO####oo#### @#### @####",
"&####o####@X####@.@###@X####OX####O.####oo#### o&### @#### #####",
"&####.#####X#&##@.#&##@X&#&#OX&&##Oo&###oo&###o@#### #&### @&##@",
"#$$#@.#####X+$##@.###@@o###OOo$###oo###@oo#### @###OX#&##@ +$##@",
"=$+$$###$#+#+$O#@###$#+++$$+###&+$#$################@####+$$#$#*",
"&$&##@@####@####&o#####O###&#o##$#@O###&+o#&#&@o#$&#@@##&#O@##&#",
"$$###o@####.##### ####@o####@.####OX####oo####oo$### @#### @####",
"&####o#####.####@ ##### &###o.####OX####oo#### o&### ##### #&###",
"&&###o#&###o#&### #&&#@o####Oo&$##OX&#&# o&&##o@#### ##### ##&#@",
"#$#++O+#+#+o+$$@OX$$@@Oo$###OX#$#+oO####oo####Xo###O +##+O.+##++",
"=+##+$++###$+++#+$+@$O$++#+++$+#++##+++###+#O+###@#O##+#+##++++%",
"#####O#####o####$O##$$$O#####o&#$##O####+o####@@#&##+#####O###$#",
"&####X#####XO&##@X###+@X####O.####oX####oo#### @####X+$#$# #####",
"&#$##X##### ####+.####@X####OX####oo#$##Xo&###oO&### ##### +&&##",
"#####o#####X##&##.#&$#@o#&&#Oo&&$#@O$#$#XO&$##oO#&## #%### #####",
"%$##+O+#$++X####Oo#$##@o#+##Oo####o##%#+X+####@##### #####X###@@",
"=$$#$$###$$#####$$$$$$&$$$#$$###%#$####%#+%$######$$$###$$$$$$#%",
"#####o####&o#####o#####o##&##o#####X###&oo####@o####X@####o#####",
"###&#o@#### ####@.###@@o####@.####oX&###oo&###Xo&### @&### @&###",
"&###@o##### #####.##$#@o#&##O.####oo#### o$###o@#### @#$## @####",
"##&##o#####o####@.#&$@@X#&##oo&&##oo&###oo&$##o@&&## @$### @&##@",
"&##+++++##+o###OOo$$O+Oo@##@OO$#+#oo##++XO#+#+oO##OO +##+O ###+#",
"*######+#+#&++##+&O#O$$$@@@#$#@#+#$#######+###$#@#####+++###@###",
"#####o#####o#####X##$##X#&##@X####@X####oo####@o####o@&###X@####",
"#####o##### #####X#$$#@X####O.#$##O &###Xo#### @#### O#### @&###",
"$$$#@o@####o@&###X$&##OX####oX####OX#### o#&##oo####X+#### #####",
"#$$##o#&###o#&&##X$$&##o&###+X&&##oX%#&#oo&###oo&&## o#&#@ ##&#@",
"*#+#@@####+@##@#OO$$#@#o###++O####OO###+oO##@#o+$+#oo+##@#o++$@#",
"=$$$$$@#$$$$#&&&$$$$$&#@#$###+##$$#+######&###$#$####$####++$#$*",
"$###&o@@###o@&&#$o$$&##o####+ #&###X####@ &###oo#### @#### @####",
"$#&##o@&#@#o##@&#o$$###o####oX####oX#### o&###oo#### @#### @####",
"&###@o#####X#&$##o$&##@o####OX####OX####oo&###oO#### @#### #&###",
"#&##@o#&###o@&&$@o####@o&&##Oo&&##oo&&##oo####XO%#&# ##&## #&##@",
"&###@++$#@+$++@@@$#++@++#+++++#+##++##++O+++##+++#++++##@@o##++$",
"*###&$+###$$$$$$$$##$$$###&#$##########$#+#####+####+##########%",
"#####oO$###o@###@X#####o#&##+X###&OX####oo$###oo####Xo#### #####",
"#####o@$###o$###@o####@X####OX####oX&### o####oo#### #&### #####",
"&#$##.#####o#$##@X##$#@X$###OX####Oo#&##oo####Xo#&## O#### +####",
"#$#$#X##$#@o$$##@o$&$#@o$$##Oo&&##oX&### o&###oo&### +#### +#&##",
"*$$$#+$&$+++#$$$+++$$$@@$$$#++#####+#$$#++#$#$++$+##O+$$##+$$&##",
"*&$$$###$&&##$$&$#$$$$&#$$$###&#&##+$$$&#+$$$##+$&##+#$###+$###=",
"$####.#####.#####X####@O####Oo####@o#### @####oo####.@#### #####",
"$####o@####o####OX####@O####oo####o ####  &###oO#### O#### @&###",
"&#&##.#####o#&###X####@o&###O.&###oo&###@ &###oo#&## ####@ @&###",
"#####o#&###o####Oo#&$#@o#&##oo####oo&&## @###@oO&###.+&$#@o####@",
"%#+#+$#+++O$####O$$++#+#####@##$###########+##++#+##+$###O######",
"*##&$###&#&####$&@$#&##O####$@#&###O#####@#####O####O##&$######&",
"&####X+####o#####.#####.####@.####O #&##oo####oo####.O####.@####",
"#####X#####o#####.####@o####O.####oo#### o####o@##&#.O#### #&###",
"&####o####@O@###@o#&##@o####@ #&##oo####oo#### o#### @#&##.@&###",
"#&$$@O####@O$&##@o####+o####@o####oX&### o&###oO&##@ ####@X#&&##",
"=#$+@$##$$+$$$$#@######+$$###+####+#O$###O####++#+&##&####$$+$#$",
"*##$&@##$#$@@#$$&@#&##$+$$###O#####o$$$#@@###&@#&#####&###O@&#&&",
"#####.@####.##### ####@o$###@ &&##O ####oo####oO#### ##### @####",
"&####o#####o##### ####@o####@ ####oo&### o&### @#### ##### @$###",
"#&###o#####o####@ #&##@ #&##o &###o ####oo####o##### #####X#&##@",
"&&&##@#&###@#&###@####@o&&##@@####OO&### @&&##o#&### #&##@o##&##"
};
